  0
SECTION
  2
HEADER
  9
$ANGBASE
  50
0.0
  9
$ANGDIR
  70
1
  9
$MEASUREMENT
  70
1
  0
ENDSEC
  0
SECTION
  2
TABLES
  0
TABLE
  2
LTYPE
  70
4
  0
LTYPE
  5
40F
  2
CONTINUOUS
  70
0
  3
Solid line
  72
65
  73
0
  40
0.0
  0
LTYPE
  5
410
  2
DASHDOT
 70
0
  3
Dash Dot ____ _ ____ _
 72
65
 73
4
 40
2.0
 49
1.25
 49
-0.25
 49
0.25
 49
-0.25
  0
LTYPE
  5
411
  2
DASHED
 70
0
  3
Dashed __ __ __ __ __
 72
65
 73
2
 40
0.75
 49
0.5
 49
-0.25
  0
LTYPE
  5
43B
  2
DOTTED
 70
0
  3
Dotted .  .  .  .
 72
65
 73
2
 40
0.2
 49
0.0
 49
-0.2
  0
ENDTAB
  0
TABLE
  2
STYLE
  70
4
  0
STYLE
  2
KICAD
  70
0
  40
0
  41
1
  42
1
  50
0
  71
0
  3
isocp.shx
  0
STYLE
  2
KICADB
  70
0
  40
0
  41
1
  42
1
  50
0
  71
0
  3
isocp.shx
  0
STYLE
  2
KICADI
  70
0
  40
0
  41
1
  42
1
  50
15
  71
0
  3
isocp.shx
  0
STYLE
  2
KICADBI
  70
0
  40
0
  41
1
  42
1
  50
15
  71
0
  3
isocp.shx
  0
ENDTAB
  0
TABLE
  2
LAYER
  70
1
  0
LAYER
  2
BLACK
  70
0
  62
7
  6
CONTINUOUS
  0
ENDTAB
  0
ENDSEC
  0
SECTION
  2
ENTITIES
0
LINE
8
BLACK
6
CONTINUOUS
10
72.9103999999999957
20
-72.4367009999999993
11
67.5604000000000013
21
-72.4367009999999993
0
ARC
8
BLACK
10
60.9603999999999999
20
-114.3866999999999905
40
0.6500010000030769
50
-180.00000000
51
-89.99982371
0
LINE
8
BLACK
6
CONTINUOUS
10
81.4103999999999957
20
-87.9367009999999993
11
81.4103999999999957
21
-110.4367009999999993
0
ARC
8
BLACK
10
90.6388999999999925
20
-70.747799999999998
40
0.9997469396087192
50
-177.15202738
51
-156.82856797
0
ARC
8
BLACK
10
69.4103999999999957
20
-62.7866999999999962
40
0.6500000000007693
50
-90.00000000
51
-0.00008815
0
LINE
8
BLACK
6
CONTINUOUS
10
72.51039999999999
20
-83.8367009999999908
11
72.51039999999999
21
-85.0367009999999937
0
ARC
8
BLACK
10
82.940100000000001
20
-44.6306000000000012
40
0.3500200037155019
50
-89.99672643
51
-0.00834834
0
LINE
8
BLACK
6
CONTINUOUS
10
74.1603999999999957
20
-115.0367009999999937
11
75.010397999999995
21
-115.0367009999999937
0
LINE
8
BLACK
6
CONTINUOUS
10
48.4104019999999977
20
-121.4367009999999993
11
81.4103999999999957
21
-121.4367009999999993
0
LINE
8
BLACK
6
CONTINUOUS
10
48.6759559999999993
20
-38.5055720000000008
11
48.6759559999999993
21
-38.8055689999999984
0
ARC
8
BLACK
10
78.9103999999999957
20
-110.4367000000000019
40
2.5000000000001998
50
-90.00000000
51
-0.00002292
0
LINE
8
BLACK
6
CONTINUOUS
10
60.9604019999999949
20
-115.0367009999999937
11
62.7152759999999958
21
-115.0367009999999937
0
ARC
8
BLACK
10
68.4634999999999962
20
-60.4362999999999957
40
1.0004009999999999
50
-111.24678379
51
-90.00000000
0
LINE
8
BLACK
6
CONTINUOUS
10
77.2901200000000017
20
-44.3306529999999981
11
77.2901200000000017
21
-44.6306499999999957
0
LINE
8
BLACK
6
CONTINUOUS
10
69.4103999999999957
20
-61.4367009999999993
11
68.4634999999999962
21
-61.4367009999999993
0
LINE
8
BLACK
6
CONTINUOUS
10
97.4103999999999957
20
-105.4367009999999993
11
97.4103999999999957
21
-61.4367009999999993
0
LINE
8
BLACK
6
CONTINUOUS
10
57.0103989999999996
20
-61.4367009999999993
11
54.8103989999999968
21
-61.4367009999999993
0
LINE
8
BLACK
6
CONTINUOUS
10
52.9103999999999957
20
-79.4367019999999968
11
52.9103999999999957
21
-78.4367009999999993
0
ARC
8
BLACK
10
68.9103999999999957
20
-85.0366999999999962
40
0.40000000000125
50
-90.00000000
51
-0.00014324
0
ARC
8
BLACK
10
78.9103999999999957
20
-87.9367000000000019
40
2.4999989999999999
50
-0.00002292
51
90.00000000
0
LINE
8
BLACK
6
CONTINUOUS
10
78.9103999999999957
20
-112.9367009999999993
11
74.1603999999999957
21
-112.9367009999999993
0
ARC
8
BLACK
10
54.3260000000000005
20
-38.5056000000000012
40
0.3500300027654772
50
0.00491168
51
90.00720228
0
ARC
8
BLACK
10
54.8103999999999942
20
-77.4367000000000019
40
16.0000000000001243
50
156.82942956
51
179.99999284
0
ARC
8
BLACK
10
75.01039999999999
20
-77.4367000000000019
40
15.9999999839080296
50
-0.00000358
51
23.17057044
0
LINE
8
BLACK
6
CONTINUOUS
10
72.8104000000000013
20
-63.4367009999999993
11
72.9103999999999957
21
-63.4367009999999993
0
ARC
8
BLACK
10
62.7152999999999992
20
-116.0366999999999962
40
0.9999990002880003
50
61.47698536
51
90.00137510
0
LINE
8
BLACK
6
CONTINUOUS
10
56.9104010000000002
20
-63.4367009999999993
11
57.0103989999999996
21
-63.4367009999999993
0
LINE
8
BLACK
6
CONTINUOUS
10
75.01039999999999
20
-61.4367009999999993
11
72.8104000000000013
21
-61.4367009999999993
0
ARC
8
BLACK
10
74.1603999999999957
20
-114.3866999999999905
40
0.6500009999999999
50
-179.99991185
51
-90.00000000
0
ARC
8
BLACK
10
68.9103999999999957
20
-87.9367000000000019
40
2.5000000000001998
50
-270.00000000
51
-179.99997708
0
LINE
8
BLACK
6
CONTINUOUS
10
76.9103999999999957
20
-67.4367009999999993
11
76.9103999999999957
21
-68.4367009999999993
0
LINE
8
BLACK
6
CONTINUOUS
10
67.9103999999999957
20
-63.4367009999999993
11
69.4103999999999957
21
-63.4367009999999993
0
ARC
8
BLACK
10
68.9103999999999957
20
-110.4367000000000019
40
2.5000009999999997
50
-179.99997708
51
-90.00000000
0
ARC
8
BLACK
10
56.9103999999999957
20
-79.4367000000000019
40
4.0000010000000001
50
-179.99997135
51
-90.00000000
0
ARC
8
BLACK
10
48.8168099999999967
20
-71.2277500000000003
40
8.6470988111588607
50
90.82987005
51
177.14780827
0
LINE
8
BLACK
6
CONTINUOUS
10
32.4103999999999957
20
-61.4367009999999993
11
32.4103999999999957
21
-105.4366989999999902
0
LINE
8
BLACK
6
CONTINUOUS
10
57.6603999999999957
20
-62.7866999999999962
11
57.6603999999999957
21
-62.0867019999999954
0
LINE
8
BLACK
6
CONTINUOUS
10
56.3103999999999942
20
-113.5867019999999883
11
56.3103999999999942
21
-114.3866999999999905
0
ARC
8
BLACK
10
48.4103999999999957
20
-105.4367000000000019
40
16.0000010000001254
50
-180.00000358
51
-89.99999284
0
LINE
8
BLACK
6
CONTINUOUS
10
67.1100720000000024
20
-115.0367009999999937
11
68.8603999999999985
21
-115.0367009999999937
0
LINE
8
BLACK
6
CONTINUOUS
10
60.3103999999999942
20
-114.3866999999999905
11
60.3103999999999942
21
-113.4367019999999968
0
LINE
8
BLACK
6
CONTINUOUS
10
48.4103999999999957
20
-87.9367009999999993
11
48.4103999999999957
21
-110.4367009999999993
0
LINE
8
BLACK
6
CONTINUOUS
10
66.4103999999999957
20
-87.9367009999999993
11
66.4103999999999957
21
-110.4367009999999993
0
ARC
8
BLACK
10
64.9103999999999957
20
-69.5719089999999909
40
8.8018509881658424
50
68.74686820
51
111.25313180
0
LINE
8
BLACK
6
CONTINUOUS
10
69.01039999999999
20
-112.9367009999999993
11
68.9103999999999957
21
-112.9367009999999993
0
ARC
8
BLACK
10
60.9103999999999957
20
-110.4367000000000019
40
2.5000000000001998
50
-89.99997708
51
-0.00002292
0
LINE
8
BLACK
6
CONTINUOUS
10
91.01039999999999
20
-99.0366989999999987
11
91.01039999999999
21
-77.4367009999999993
0
LINE
8
BLACK
6
CONTINUOUS
10
63.4103999999999957
20
-87.9367009999999993
11
63.4103999999999957
21
-110.4367009999999993
0
ARC
8
BLACK
10
55.6603999999999957
20
-113.5866999999999933
40
0.6499990000007693
50
-0.00017629
51
90.00008815
0
ARC
8
BLACK
10
72.8104000000000013
20
-62.7866999999999962
40
0.6500009999999999
50
-179.99991185
51
-90.00000000
0
ARC
8
BLACK
10
60.9103999999999957
20
-83.8366999999999933
40
0.4
50
90.00028648
51
180.00000000
0
ARC
8
BLACK
10
48.6770999999999958
20
-61.5816999999999979
40
0.999953538383159
50
-89.17086440
51
-68.85147833
0
LINE
8
BLACK
6
CONTINUOUS
10
60.5103999999999971
20
-85.0367019999999911
11
60.5103999999999971
21
-83.8366999999999933
0
ARC
8
BLACK
10
72.9103999999999957
20
-85.0366999999999962
40
0.400001
50
-179.99985676
51
-90.00000000
0
ARC
8
BLACK
10
49.0259999999999962
20
-38.5056000000000012
40
0.3500440011198592
50
90.00703859
51
179.99541691
0
LINE
8
BLACK
6
CONTINUOUS
10
66.9103999999999957
20
-73.0867009999999908
11
66.9103999999999957
21
-73.7867009999999937
0
ARC
8
BLACK
10
57.0103999999999971
20
-62.0867000000000004
40
0.6499990000007693
50
-0.00017629
51
90.00008815
0
ARC
8
BLACK
10
54.8103999999999942
20
-99.0366999999999962
40
16.0000010000001254
50
-180.00000358
51
-89.99999284
0
LINE
8
BLACK
6
CONTINUOUS
10
69.3104000000000013
20
-85.0367009999999937
11
69.3104000000000013
21
-83.8367009999999908
0
ARC
8
BLACK
10
77.6400999999999897
20
-44.3307000000000002
40
0.3499800031558946
50
89.99656273
51
179.99230556
0
LINE
8
BLACK
6
CONTINUOUS
10
54.3259559999999979
20
-38.1555699999999973
11
49.0259569999999982
21
-38.1555699999999973
0
LINE
8
BLACK
6
CONTINUOUS
10
70.0604000000000013
20
-62.7867009999999937
11
70.0604000000000013
21
-62.0867009999999979
0
ARC
8
BLACK
10
72.9103999999999957
20
-83.8366999999999933
40
0.40000000000125
50
-270.00000000
51
-179.99985676
0
LINE
8
BLACK
6
CONTINUOUS
10
62.2603989999999996
20
-72.4367009999999993
11
56.9103999999999957
21
-72.4367009999999993
0
LINE
8
BLACK
6
CONTINUOUS
10
60.4104010000000002
20
-63.4367009999999993
11
61.9103999999999957
21
-63.4367009999999993
0
LINE
8
BLACK
6
CONTINUOUS
10
54.3259559999999979
20
-39.1555699999999973
11
49.0259579999999957
21
-39.1555699999999973
0
ARC
8
BLACK
10
60.9103999999999957
20
-85.0366999999999962
40
0.400001
50
-179.99971352
51
-90.00000000
0
ARC
8
BLACK
10
56.9103999999999957
20
-78.4367000000000019
40
4.0000000000001243
50
-270.00001432
51
-179.99998568
0
LINE
8
BLACK
6
CONTINUOUS
10
38.8104000000000013
20
-77.4366979999999927
11
38.8104000000000013
21
-99.0366989999999987
0
ARC
8
BLACK
10
64.9103999999999957
20
-111.9978729999999985
40
3.5968159683004357
50
-118.52434175
51
-61.47565825
0
ARC
8
BLACK
10
81.4103999999999957
20
-105.4367000000000019
40
16.000000000000032
50
-90.00000000
51
-0.00000358
0
LINE
8
BLACK
6
CONTINUOUS
10
57.3103999999999942
20
-83.8366999999999933
11
57.3103999999999942
21
-85.0367019999999911
0
LINE
8
BLACK
6
CONTINUOUS
10
97.4103999999999957
20
-61.4367009999999993
11
97.4103999999999957
21
-39.6367009999999951
0
ARC
8
BLACK
10
62.2603999999999971
20
-73.0866999999999933
40
0.6499990000007693
50
-0.00017629
51
90.00008815
0
ARC
8
BLACK
10
57.0103999999999971
20
-62.7866999999999962
40
0.65
50
-90.00008815
51
-0.00000000
0
LINE
8
BLACK
6
CONTINUOUS
10
60.8104009999999988
20
-112.9367009999999993
11
60.9104010000000002
21
-112.9367009999999993
0
ARC
8
BLACK
10
72.9103999999999957
20
-67.4367000000000019
40
3.9999989999999999
50
-0.00001432
51
90.00000000
0
LINE
8
BLACK
6
CONTINUOUS
10
82.9401199999999932
20
-43.9806509999999946
11
77.6401209999999935
21
-43.9806509999999946
0
LINE
8
BLACK
6
CONTINUOUS
10
76.9103999999999957
20
-78.4367009999999993
11
76.9103999999999957
21
-79.4367009999999993
0
ARC
8
BLACK
10
82.940100000000001
20
-44.3307000000000002
40
0.3500490005713486
50
0.00802095
51
89.99672641
0
LINE
8
BLACK
6
CONTINUOUS
10
54.8104019999999963
20
-115.0367009999999937
11
55.6603989999999982
21
-115.0367009999999937
0
ARC
8
BLACK
10
68.8603999999999985
20
-114.3866999999999905
40
0.6500000000007693
50
-90.00000000
51
-0.00008815
0
LINE
8
BLACK
6
CONTINUOUS
10
56.9104010000000002
20
-74.4367009999999993
11
62.2603989999999996
21
-74.4367009999999993
0
ARC
8
BLACK
10
60.9103999999999957
20
-87.9367000000000019
40
2.4999989999999999
50
-0.00002292
51
90.00000000
0
ARC
8
BLACK
10
56.9103999999999957
20
-68.4367000000000019
40
4.0000010000000001
50
-179.99997135
51
-90.00000000
0
ARC
8
BLACK
10
77.6400999999999897
20
-44.6306000000000012
40
0.3500510006913278
50
-179.99181442
51
-89.99639908
0
ARC
8
BLACK
10
56.9103999999999957
20
-67.4367000000000019
40
4.0000000000001243
50
-270.00001432
51
-179.99998568
0
ARC
8
BLACK
10
68.9103999999999957
20
-83.8366999999999933
40
0.399999
50
-0.00014324
51
90.00000000
0
ARC
8
BLACK
10
50.9103999999999957
20
-110.4367000000000019
40
2.5000010000001995
50
-179.99997708
51
-89.99997708
0
LINE
8
BLACK
6
CONTINUOUS
10
82.9401199999999932
20
-44.9806509999999946
11
77.640121999999991
21
-44.9806509999999946
0
ARC
8
BLACK
10
62.2603999999999971
20
-73.7866999999999962
40
0.65
50
-90.00008815
51
-0.00000000
0
LINE
8
BLACK
6
CONTINUOUS
10
72.1603999999999957
20
-62.7867009999999937
11
72.1603999999999957
21
-62.0867009999999979
0
ARC
8
BLACK
10
94.2103999999999928
20
-39.6366999999999976
40
3.199999
50
-0.00001790
51
90.00000000
0
ARC
8
BLACK
10
67.5604000000000013
20
-73.0866999999999933
40
0.6500000000007693
50
-270.00000000
51
-179.99991185
0
ARC
8
BLACK
10
72.8104000000000013
20
-62.0867000000000004
40
0.6500000000007693
50
-270.00000000
51
-179.99991185
0
ARC
8
BLACK
10
60.8103999999999942
20
-113.4367000000000019
40
0.5000000000039999
50
-270.00011459
51
-179.99977082
0
LINE
8
BLACK
6
CONTINUOUS
10
52.9103999999999957
20
-68.4367019999999968
11
52.9103999999999957
21
-67.4367009999999993
0
ARC
8
BLACK
10
60.4103999999999957
20
-62.0867000000000004
40
0.6500000000030769
50
-270.00017629
51
-179.99982371
0
LINE
8
BLACK
6
CONTINUOUS
10
73.51039999999999
20
-113.5867009999999908
11
73.51039999999999
21
-114.386700999999988
0
ARC
8
BLACK
10
72.9103999999999957
20
-79.4367000000000019
40
4.0000000000001243
50
-90.00000000
51
-0.00001432
0
ARC
8
BLACK
10
72.9103999999999957
20
-78.4367000000000019
40
3.9999989999999999
50
-0.00001432
51
90.00000000
0
LINE
8
BLACK
6
CONTINUOUS
10
67.9103999999999957
20
-63.4367009999999993
11
61.9103999999999957
21
-63.4367009999999993
0
ARC
8
BLACK
10
49.0259999999999962
20
-38.8055999999999983
40
0.349970002520216
50
-180.00507413
51
-90.00687608
0
ARC
8
BLACK
10
56.9103999999999957
20
-83.8366999999999933
40
0.399999
50
0.00000000
51
90.00000000
0
ARC
8
BLACK
10
72.9103999999999957
20
-68.4367000000000019
40
4.0000000000001243
50
-90.00000000
51
-0.00001432
0
LINE
8
BLACK
6
CONTINUOUS
10
50.9104010000000002
20
-112.9367009999999993
11
55.6603989999999982
21
-112.9367009999999993
0
ARC
8
BLACK
10
54.8103999999999942
20
-77.4367000000000019
40
15.9999992230288868
50
90.00000358
51
111.14829927
0
ARC
8
BLACK
10
75.01039999999999
20
-99.0366999999999962
40
16.000000000000032
50
-90.00000716
51
0.00000358
0
ARC
8
BLACK
10
81.1436999999999955
20
-61.5817999999999941
40
0.9998557110408481
50
-111.15058912
51
-90.82921852
0
LINE
8
BLACK
6
CONTINUOUS
10
32.4103999999999957
20
-39.6366999999999976
11
32.4103999999999957
21
-61.4367009999999993
0
ARC
8
BLACK
10
60.4103999999999957
20
-62.7866999999999962
40
0.6500010000007692
50
-180.00000000
51
-89.99991185
0
ARC
8
BLACK
10
55.6603999999999957
20
-114.3866999999999905
40
0.65
50
-90.00008815
51
-0.00000000
0
ARC
8
BLACK
10
39.1816999999999993
20
-70.7476999999999947
40
0.9999625402008817
50
-23.17219045
51
-2.85312596
0
ARC
8
BLACK
10
75.01039999999999
20
-77.4367000000000019
40
15.999998999999999
50
68.85170073
51
90.00000000
0
LINE
8
BLACK
6
CONTINUOUS
10
68.9103999999999957
20
-83.4367009999999993
11
60.9103980000000007
21
-83.4367009999999993
0
ARC
8
BLACK
10
74.1603999999999957
20
-113.5866999999999933
40
0.6500000000007693
50
-270.00000000
51
-179.99991185
0
LINE
8
BLACK
6
CONTINUOUS
10
67.5604000000000013
20
-74.4367009999999993
11
72.9103999999999957
21
-74.4367009999999993
0
ARC
8
BLACK
10
81.0039999999999907
20
-71.2276999999999987
40
8.6470558621475906
50
2.85186414
51
89.17019140
0
ARC
8
BLACK
10
50.9103999999999957
20
-87.9367000000000019
40
2.5000000000001998
50
-270.00000000
51
-179.99997708
0
LINE
8
BLACK
6
CONTINUOUS
10
62.9103999999999957
20
-73.7866999999999962
11
62.9103999999999957
21
-73.0867020000000025
0
ARC
8
BLACK
10
67.5604000000000013
20
-73.7866999999999962
40
0.6500009999999999
50
-179.99991185
51
-90.00000000
0
LINE
8
BLACK
6
CONTINUOUS
10
61.3573379999999986
20
-61.4367009999999993
11
60.4104019999999977
21
-61.4367009999999993
0
LINE
8
BLACK
6
CONTINUOUS
10
59.7603999999999971
20
-62.7866999999999962
11
59.7603999999999971
21
-62.0867019999999954
0
ARC
8
BLACK
10
69.4103999999999957
20
-62.0867000000000004
40
0.649999
50
-0.00008815
51
90.00000000
0
ARC
8
BLACK
10
35.6103999999999985
20
-39.6366999999999976
40
3.1999999999999997
50
90.00000000
51
180.00000000
0
LINE
8
BLACK
6
CONTINUOUS
10
50.9103999999999957
20
-85.4367009999999993
11
56.9104010000000002
21
-85.4367009999999993
0
ARC
8
BLACK
10
69.01039999999999
20
-113.4367000000000019
40
0.499999
50
-0.00011459
51
90.00000000
0
ARC
8
BLACK
10
54.3260000000000005
20
-38.8055999999999983
40
0.3499560012858759
50
-90.00720352
51
0.00491168
0
ARC
8
BLACK
10
67.1055999999999955
20
-116.0370999999999952
40
1.0003851209379315
50
89.74387717
51
118.51710730
0
LINE
8
BLACK
6
CONTINUOUS
10
54.6759559999999993
20
-38.5055699999999987
11
54.6759559999999993
21
-38.8055699999999959
0
LINE
8
BLACK
6
CONTINUOUS
10
83.2901200000000017
20
-44.330650999999996
11
83.2901200000000017
21
-44.6306510000000003
0
ARC
8
BLACK
10
61.3572999999999951
20
-60.4366999999999948
40
1.0000142982962794
50
-89.99782276
51
-68.74491106
0
LINE
8
BLACK
6
CONTINUOUS
10
94.2103999999999928
20
-36.4367009999999993
11
35.6103999999999985
21
-36.4367009999999993
0
ARC
8
BLACK
10
56.9103999999999957
20
-85.0366999999999962
40
0.400000000005
50
-89.99985676
51
-0.00028648
0
LINE
8
BLACK
6
CONTINUOUS
10
78.9103999999999957
20
-85.4367009999999993
11
72.9103999999999957
21
-85.4367009999999993
0
LINE
8
BLACK
6
CONTINUOUS
10
69.51039999999999
20
-114.386700999999988
11
69.51039999999999
21
-113.4367009999999993
0
LINE
8
BLACK
6
CONTINUOUS
10
65.4046009999999995
20
-79.2060829999999925
11
65.4046009999999995
21
-76.4674839999999989
0
LINE
8
BLACK
6
CONTINUOUS
10
66.054600999999991
20
-75.8174839999999932
11
68.9456009999999964
21
-75.8174839999999932
0
LINE
8
BLACK
6
CONTINUOUS
10
68.9456009999999964
20
-79.8560829999999982
11
66.054600999999991
21
-79.8560829999999982
0
LINE
8
BLACK
6
CONTINUOUS
10
69.595601000000002
20
-76.4674839999999989
11
69.595601000000002
21
-79.2060829999999925
0
ARC
8
BLACK
10
66.0546020000000027
20
-76.4674849999999964
40
0.6500010000007692
50
90.00008815
51
179.99991185
0
ARC
8
BLACK
10
66.0546020000000027
20
-79.206081999999995
40
0.6500010000007692
50
-179.99991185
51
-90.00008815
0
ARC
8
BLACK
10
68.9455999999999989
20
-76.467489999999998
40
0.6500060000007692
50
0.00052888
51
89.99991185
0
ARC
8
BLACK
10
68.9455999999999989
20
-79.20608
40
0.6500010000069231
50
-89.99991185
51
-0.00026444
0
LINE
8
BLACK
6
CONTINUOUS
10
51.1653999999999982
20
-90.7946000000000026
11
51.1653999999999982
21
-107.4384000000000015
0
LINE
8
BLACK
6
CONTINUOUS
10
51.1653999999999982
20
-90.7946000000000026
11
59.7653999999999996
21
-90.7946000000000026
0
LINE
8
BLACK
6
CONTINUOUS
10
51.1653999999999982
20
-107.4384000000000015
11
59.7653999999999996
21
-107.4384000000000015
0
LINE
8
BLACK
6
CONTINUOUS
10
59.7653999999999996
20
-90.7946000000000026
11
59.7653999999999996
21
-107.4384000000000015
0
LINE
8
BLACK
6
CONTINUOUS
10
65.4046009999999995
20
-68.1951830000000001
11
65.4046009999999995
21
-65.4565839999999923
0
LINE
8
BLACK
6
CONTINUOUS
10
66.054600999999991
20
-64.8065840000000009
11
68.9456009999999964
21
-64.8065840000000009
0
LINE
8
BLACK
6
CONTINUOUS
10
68.9456009999999964
20
-68.8451829999999916
11
66.054600999999991
21
-68.8451829999999916
0
LINE
8
BLACK
6
CONTINUOUS
10
69.595601000000002
20
-65.4565839999999923
11
69.595601000000002
21
-68.1951830000000001
0
ARC
8
BLACK
10
66.0546020000000027
20
-65.456585000000004
40
0.6500010000007692
50
90.00008815
51
179.99991185
0
ARC
8
BLACK
10
66.0546020000000027
20
-68.1951820000000026
40
0.6500010000007692
50
-179.99991185
51
-90.00008815
0
ARC
8
BLACK
10
68.9455999999999989
20
-65.4565899999999914
40
0.6500060000007692
50
0.00052888
51
89.99991185
0
ARC
8
BLACK
10
68.9455999999999989
20
-68.1951799999999935
40
0.6500010000069231
50
-89.99991185
51
-0.00026444
0
LINE
8
BLACK
6
CONTINUOUS
10
69.1612999999999971
20
-90.7946000000000026
11
69.1612999999999971
21
-107.4384000000000015
0
LINE
8
BLACK
6
CONTINUOUS
10
69.1612999999999971
20
-90.7946000000000026
11
77.7612999999999914
21
-90.7946000000000026
0
LINE
8
BLACK
6
CONTINUOUS
10
69.1612999999999971
20
-107.4384000000000015
11
77.7612999999999914
21
-107.4384000000000015
0
LINE
8
BLACK
6
CONTINUOUS
10
77.7612999999999914
20
-90.7946000000000026
11
77.7612999999999914
21
-107.4384000000000015
  0
ENDSEC
  0
EOF
